<?xml version="1.0" encoding="UTF-8" standalone="no"?>
<svg
   xmlns:dc="http://purl.org/dc/elements/1.1/"
   xmlns:cc="http://creativecommons.org/ns#"
   xmlns:rdf="http://www.w3.org/1999/02/22-rdf-syntax-ns#"
   xmlns:svg="http://www.w3.org/2000/svg"
   xmlns="http://www.w3.org/2000/svg"
   xmlns:sodipodi="http://sodipodi.sourceforge.net/DTD/sodipodi-0.dtd"
   xmlns:inkscape="http://www.inkscape.org/namespaces/inkscape"
   width="8.5in"
   height="11in"
   viewBox="0 0 215.9 279.4"
   version="1.1"
   id="svg8"
   inkscape:version="1.0.2 (1.0.2+r75+1)"
   sodipodi:docname="pencil_drawing.svg">
  <defs
     id="defs2">
    <rect
       x="10.876796"
       y="42.84276"
       width="198.19413"
       height="175.33564"
       id="rect1239" />
  </defs>
  <sodipodi:namedview
     id="base"
     pagecolor="#ffffff"
     bordercolor="#666666"
     borderopacity="1.0"
     inkscape:pageopacity="0.0"
     inkscape:pageshadow="2"
     inkscape:zoom="2.780303"
     inkscape:cx="408"
     inkscape:cy="528.48566"
     inkscape:document-units="px"
     inkscape:current-layer="layer1"
     inkscape:document-rotation="0"
     showgrid="false"
     units="in"
     inkscape:window-width="1920"
     inkscape:window-height="1015"
     inkscape:window-x="1919"
     inkscape:window-y="0"
     inkscape:window-maximized="1"
     inkscape:snap-bbox="false"
     inkscape:snap-midpoints="false"
     showguides="true"
     inkscape:object-nodes="false"
     inkscape:guide-bbox="true" />
  <metadata
     id="metadata5">
    <rdf:RDF>
      <cc:Work
         rdf:about="">
        <dc:format>image/svg+xml</dc:format>
        <dc:type
           rdf:resource="http://purl.org/dc/dcmitype/StillImage" />
        <dc:title></dc:title>
      </cc:Work>
    </rdf:RDF>
  </metadata>
  <g
     inkscape:label="Layer 1"
     inkscape:groupmode="layer"
     id="layer1">
    <rect
       style="opacity:1;fill:none;stroke:none;stroke-width:3.96875;stroke-linecap:square;stroke-linejoin:miter;stroke-miterlimit:4;stroke-dasharray:none"
       id="rect1204"
       width="128.96121"
       height="130.49222"
       x="-83.535881"
       y="91.477249" />
    <text
       xml:space="preserve"
       id="text1237"
       style="fill:black;fill-opacity:1;line-height:1.25;stroke:none;font-family:sans-serif;font-style:normal;font-weight:normal;font-size:10.58333333px;white-space:pre;shape-inside:url(#rect1239);" />
    <g
       id="g1549"
       transform="matrix(1.2125203,0,0,1.1772175,-16.256184,-18.4204)"
       style="stroke-width:0.837003">
      <path
         id="path1517"
         style="opacity:0.919362;fill:none;stroke:#1a1a1a;stroke-width:2.51101;stroke-linecap:round;stroke-linejoin:round;stroke-miterlimit:4;stroke-dasharray:none"
         d="m 338.59901,506.04678 a 67.361024,64.396187 88.885337 0 0 -2.24646,47.56152"
         transform="scale(0.26458333)" />
      <path
         id="path1513"
         style="opacity:0.919362;fill:none;stroke:#1a1a1a;stroke-width:2.51101;stroke-linecap:round;stroke-linejoin:round;stroke-miterlimit:4;stroke-dasharray:none"
         d="m 458.88312,553.98796 a 67.361024,64.396187 88.885337 0 0 -2.32433,-48.02555"
         transform="scale(0.26458333)" />
      <path
         id="rect831"
         style="color:#000000;font-style:normal;font-variant:normal;font-weight:normal;font-stretch:normal;font-size:medium;line-height:normal;font-family:sans-serif;font-variant-ligatures:normal;font-variant-position:normal;font-variant-caps:normal;font-variant-numeric:normal;font-variant-alternates:normal;font-variant-east-asian:normal;font-feature-settings:normal;font-variation-settings:normal;text-indent:0;text-align:start;text-decoration:none;text-decoration-line:none;text-decoration-style:solid;text-decoration-color:#000000;letter-spacing:normal;word-spacing:normal;text-transform:none;writing-mode:lr-tb;direction:ltr;text-orientation:mixed;dominant-baseline:auto;baseline-shift:baseline;text-anchor:start;white-space:normal;shape-padding:0;shape-margin:0;inline-size:0;clip-rule:nonzero;display:inline;overflow:visible;visibility:visible;isolation:auto;mix-blend-mode:normal;color-interpolation:sRGB;color-interpolation-filters:linearRGB;solid-color:#000000;solid-opacity:1;vector-effect:none;fill:#000000;fill-opacity:1;fill-rule:nonzero;stroke:none;stroke-width:0.664369;stroke-linecap:round;stroke-linejoin:round;stroke-miterlimit:4;stroke-dasharray:none;stroke-dashoffset:0;stroke-opacity:1;color-rendering:auto;image-rendering:auto;shape-rendering:auto;text-rendering:auto;enable-background:accumulate;stop-color:#000000"
         d="m 111.90571,134.13937 -13.102189,2.1e-4 v 0.22683 2.21632 l -6.513355,0.0577 0.15565,0.30639 1.504137,2.9598 -1.695376,3.45927 6.548944,0.0386 v 2.39407 l 6.551199,4.43836 6.55099,-4.43836 v -2.39366 l 6.54895,-0.0384 -1.69537,-3.45906 1.65978,-3.26619 -0.42481,-0.004 -6.08855,-0.0542 z m -12.516809,0.45407 h 11.931439 v 1.98438 6.83059 2.184 l -3.25392,2.20446 -2.92073,-1.97886 -2.7117,1.83732 -3.045089,-2.06292 v -2.18441 -6.83059 z m 9.434909,1.82668 0.002,0.002 4.2e-4,2.1e-4 c -0.0205,2e-5 -0.041,0.002 -0.0607,0.007 l -2.25661,0.52953 -8.4e-4,2.1e-4 c -0.002,4.2e-4 -0.003,8.4e-4 -0.005,0.001 -8.4e-4,2.1e-4 -10e-4,4.2e-4 -0.003,8.4e-4 h -2.1e-4 c -0.042,0.0111 -0.0793,0.0322 -0.10779,0.061 l -1.05232,1.06623 -1.43767,-1.04435 c -0.0105,-0.008 -0.0218,-0.0144 -0.0337,-0.0203 -0.0311,-0.0155 -0.0661,-0.0246 -0.10207,-0.0264 l -2.3237,-0.17876 c -0.0746,-0.006 -0.14783,0.02 -0.19635,0.0689 -10e-4,0.002 -0.003,0.003 -0.004,0.005 -0.0461,0.0494 -0.0618,0.11482 -0.0423,0.17589 l 0.61728,1.93591 2.1e-4,4.2e-4 c 4.2e-4,0.001 9.4e-4,0.003 0.001,0.004 3.1e-4,8.4e-4 3.1e-4,10e-4 6.2e-4,0.002 v 2e-4 c 0.013,0.0361 0.0377,0.068 0.0712,0.0924 l 1.42539,1.03555 -1.60906,1.63034 c -0.0536,0.0543 -0.069,0.12911 -0.0405,0.19594 l 0.35303,0.82816 c 4.2e-4,0.001 9.4e-4,0.002 0.001,0.003 1.1e-4,3.1e-4 2.1e-4,8.3e-4 2.1e-4,8.3e-4 7.3e-4,0.002 0.002,0.003 0.002,0.005 1.1e-4,2.1e-4 5e-5,2.1e-4 2.1e-4,6.3e-4 7.3e-4,0.002 0.002,0.003 0.002,0.005 3.2e-4,4.1e-4 3.2e-4,0.001 6.3e-4,0.002 7.3e-4,10e-4 0.001,0.002 0.002,0.003 3.2e-4,4.1e-4 6.3e-4,0.001 10e-4,0.002 7.3e-4,10e-4 0.001,0.002 0.002,0.003 4.2e-4,4.2e-4 8.4e-4,0.001 10e-4,0.002 1e-4,3.1e-4 2e-4,8.4e-4 4.1e-4,0.001 8.4e-4,10e-4 0.002,0.002 0.003,0.003 0.006,0.009 0.0122,0.0168 0.0194,0.0246 1e-4,2e-4 3.1e-4,4.1e-4 6.2e-4,4.1e-4 0.002,0.003 0.005,0.005 0.008,0.008 8.4e-4,8.4e-4 0.002,0.002 0.002,0.002 0,0 2.1e-4,2.1e-4 2.1e-4,2.1e-4 0.001,0.001 0.002,0.002 0.004,0.003 10e-4,0.001 0.002,0.002 0.003,0.003 8.3e-4,8.4e-4 0.002,0.002 0.003,0.002 10e-5,9e-5 4.2e-4,1e-4 4.2e-4,2.1e-4 0.001,0.001 0.002,0.002 0.004,0.003 0.001,10e-4 0.002,0.002 0.004,0.003 10e-4,8.4e-4 0.002,0.002 0.003,0.002 l 0.68274,0.49006 c 6.3e-4,4.2e-4 0.001,6.3e-4 0.002,0.001 6.3e-4,4.2e-4 0.001,8.4e-4 0.002,10e-4 6.3e-4,4.2e-4 0.001,8.4e-4 0.002,0.001 3.1e-4,2.1e-4 7.3e-4,4.2e-4 10e-4,8.4e-4 0.005,0.004 0.0106,0.007 0.0162,0.01 10e-4,8.4e-4 0.003,0.002 0.004,0.002 3.1e-4,9e-5 4.1e-4,3.2e-4 8.3e-4,4.2e-4 0.002,8.4e-4 0.004,0.002 0.006,0.003 8.4e-4,3.2e-4 0.002,8.4e-4 0.002,0.001 4.2e-4,3.1e-4 0.001,8.3e-4 0.002,8.3e-4 0.004,0.002 0.007,0.003 0.0108,0.005 0.001,4.1e-4 0.003,0.001 0.004,0.002 8.4e-4,3.1e-4 0.002,8.4e-4 0.002,8.4e-4 3.2e-4,9e-5 6.3e-4,4.2e-4 0.001,4.2e-4 0.002,8.3e-4 0.004,0.002 0.006,0.002 0.002,4.2e-4 0.003,0.001 0.004,0.001 8.4e-4,2.1e-4 0.002,4.2e-4 0.002,8.4e-4 4.2e-4,9e-5 8.4e-4,4.2e-4 10e-4,4.2e-4 0.002,4.2e-4 0.004,0.001 0.006,0.002 0.002,4.2e-4 0.003,8.4e-4 0.004,0.001 8.4e-4,2.1e-4 0.001,4.2e-4 0.002,4.2e-4 h 2.1e-4 c 0.009,0.002 0.0184,0.004 0.0278,0.006 l 1.01264,0.15196 c 0.0808,0.0121 0.16281,-0.0134 0.21578,-0.0671 l 1.59884,-1.61991 1.71767,1.24786 c 0.0633,0.046 0.15056,0.0592 0.22846,0.0348 l 0.9654,-0.30291 c 0.001,-4.2e-4 0.003,-8.4e-4 0.004,-0.001 3.1e-4,-9e-5 8.3e-4,-9e-5 10e-4,-2.1e-4 0.002,-4.2e-4 0.004,-10e-4 0.006,-0.002 3.1e-4,-9e-5 4.2e-4,-3.1e-4 8.4e-4,-4.2e-4 0.002,-4.2e-4 0.003,-10e-4 0.005,-0.002 4.2e-4,-2.1e-4 0.001,-4.2e-4 0.002,-8.4e-4 0.002,-4.2e-4 0.003,-0.001 0.004,-0.002 8.4e-4,-3.1e-4 0.001,-4.2e-4 0.002,-8.4e-4 0.002,-4.2e-4 0.003,-0.001 0.004,-0.002 8.4e-4,-3.2e-4 0.002,-8.4e-4 0.002,-0.001 3.2e-4,-2.1e-4 6.3e-4,-3.1e-4 0.001,-4.2e-4 0.002,-8.3e-4 0.003,-0.002 0.004,-0.002 0.01,-0.005 0.0194,-0.0105 0.0284,-0.0168 l 8.4e-4,-4.2e-4 c 0.003,-0.002 0.006,-0.004 0.009,-0.007 8.3e-4,-8.4e-4 0.002,-0.002 0.003,-0.002 0,0 2e-4,-2.1e-4 2e-4,-2.1e-4 0.001,-10e-4 0.003,-0.002 0.004,-0.003 10e-4,-0.001 0.002,-0.002 0.003,-0.003 8.4e-4,-8.4e-4 0.002,-0.002 0.003,-0.002 10e-5,-9e-5 2.1e-4,-3.1e-4 2.1e-4,-4.2e-4 0.001,-0.001 0.002,-0.002 0.003,-0.003 0.001,-0.001 0.002,-0.002 0.003,-0.003 0.001,-0.001 0.002,-0.002 0.003,-0.003 l 0.57106,-0.58578 0.002,-0.001 c 4.2e-4,-4.2e-4 8.4e-4,-0.001 0.001,-0.002 l 0.002,-0.002 c 3.2e-4,-3.1e-4 2.1e-4,-8.3e-4 6.3e-4,-8.3e-4 0.004,-0.004 0.008,-0.009 0.0117,-0.0139 8.4e-4,-10e-4 10e-4,-0.002 0.002,-0.003 1e-4,-2.1e-4 3.1e-4,-8.4e-4 4.2e-4,-8.4e-4 10e-4,-0.002 0.002,-0.003 0.003,-0.005 4.2e-4,-4.2e-4 8.3e-4,-0.001 10e-4,-0.001 3.2e-4,-4.1e-4 2.1e-4,-0.001 6.3e-4,-0.002 0.002,-0.003 0.004,-0.006 0.006,-0.009 8.4e-4,-0.001 0.001,-0.003 0.002,-0.004 3.2e-4,-8.4e-4 8.4e-4,-0.001 8.4e-4,-0.002 1e-4,-3.2e-4 3.1e-4,-4.2e-4 4.2e-4,-8.4e-4 8.4e-4,-0.002 0.002,-0.003 0.002,-0.005 4.2e-4,-10e-4 10e-4,-0.002 0.002,-0.004 3.2e-4,-8.4e-4 2.1e-4,-0.001 6.3e-4,-0.002 1e-4,-3.2e-4 3.1e-4,-8.4e-4 4.2e-4,-10e-4 8.4e-4,-0.002 10e-4,-0.003 0.002,-0.005 4.2e-4,-10e-4 8.4e-4,-0.002 0.002,-0.004 3.2e-4,-8.3e-4 4.2e-4,-0.001 8.4e-4,-0.002 v -2.1e-4 c 0.003,-0.008 0.005,-0.0156 0.007,-0.0237 l 0.17692,-0.86886 c 0.0141,-0.0693 -0.0155,-0.13966 -0.0781,-0.1851 l -1.7054,-1.23886 1.06255,-1.07646 c 0.009,-0.009 0.0168,-0.0188 0.0237,-0.029 0.0181,-0.0267 0.0286,-0.0567 0.0307,-0.0875 l 0.20842,-1.99359 c 0.007,-0.064 -0.0233,-0.12671 -0.0804,-0.16833 -0.002,-0.001 -0.004,-0.003 -0.006,-0.004 v 2.1e-4 c -0.041,-0.0281 -0.0919,-0.0436 -0.1444,-0.0436 z m -0.2571,0.46593 -0.15688,1.50148 -0.70462,-0.10554 -0.58782,-0.42196 -0.24565,-0.57617 z m -9.763189,0.15053 v 0.442 l -5.439351,0.0372 -0.218033,-0.42912 z m 13.102189,4.2e-4 5.65739,0.0503 -0.21803,0.4287 -5.43936,-0.037 z m -10.17286,0.20065 1.75019,0.13458 -0.12313,0.6044 -0.4917,0.50438 -0.67169,0.21087 z m 4.7556,0.29985 0.17037,0.40027 -0.63671,0.64509 -0.3295,-0.2393 z m -2.57692,0.0311 5.1254,3.72311 -0.0849,0.41664 -1.53155,-1.11246 -3.59364,-2.61066 z m -5.108009,0.36386 v 3.87999 l -5.178776,0.0354 0.953124,-1.94409 -0.983804,-1.9357 z m 13.102189,4.2e-4 5.20946,0.0356 -0.9838,1.9357 0.95312,1.94409 -5.17878,-0.0354 z m -4.95604,0.32316 0.32868,0.23583 -0.57698,0.58455 -0.32685,-0.23766 z m -3.34494,0.0869 5.18083,3.76341 -0.27489,0.28205 -2.93239,-2.13023 -2.24844,-1.63341 z m 4.09046,0.33952 0.48557,0.0726 -0.80239,0.81302 -0.32459,-0.23582 z m -4.73637,0.19186 2.79638,2.03142 2.33147,1.69353 -0.46654,0.14645 -5.12785,-3.72516 z m 0.70973,1.51988 0.3295,0.2393 -1.68126,1.70336 -0.17079,-0.40027 z m 0.68191,0.49518 0.32685,0.23746 -1.78619,1.8095 -0.32869,-0.23582 z m 0.67926,0.49333 0.32459,0.23583 -1.51334,1.53338 -0.48556,-0.0728 1.29674,-1.31392 z m -6.226199,0.88358 v 0.68437 l -5.70279,-0.0338 0.300869,-0.6138 z m 13.102189,4.2e-4 5.40193,0.0368 0.30087,0.6138 -5.7028,0.0337 z m -6.54076,4.9673 0.29636,0.66268 1.01735,0.002 -0.83388,0.39679 0.3113,0.65962 -0.81159,-0.41745 -0.82488,0.40538 0.33216,-0.65471 -0.82099,-0.40886 1.01694,0.0127 z" />
      <text
         xml:space="preserve"
         style="font-style:normal;font-weight:normal;font-size:3.15038px;line-height:1.25;font-family:sans-serif;fill:#000000;fill-opacity:1;stroke:none;stroke-width:0.664369;stroke-miterlimit:4;stroke-dasharray:none"
         x="94.563828"
         y="141.28543"
         id="text1231"
         transform="scale(1.0019173,0.99808636)"><tspan
           sodipodi:role="line"
           id="tspan1229"
           x="94.563828"
           y="141.28543"
           style="stroke-width:0.664369;stroke-miterlimit:4;stroke-dasharray:none">20</tspan></text>
      <text
         xml:space="preserve"
         style="font-style:normal;font-weight:normal;font-size:3.15038px;line-height:1.25;font-family:sans-serif;fill:#000000;fill-opacity:1;stroke:none;stroke-width:0.664369;stroke-miterlimit:4;stroke-dasharray:none"
         x="112.00922"
         y="141.3494"
         id="text1235"
         transform="scale(1.0019173,0.99808636)"><tspan
           sodipodi:role="line"
           id="tspan1233"
           x="112.00922"
           y="141.3494"
           style="stroke-width:0.664369;stroke-miterlimit:4;stroke-dasharray:none">21</tspan></text>
      <path
         d="m 89.731996,130.32659 0.213818,-0.31013 1.823451,1.25717 0.28311,-0.41063 0.287156,0.19798 -0.496927,0.72076 z"
         style="font-style:normal;font-variant:normal;font-weight:normal;font-stretch:normal;font-size:3.48791px;line-height:1.25;font-family:'League Gothic';-inkscape-font-specification:'League Gothic, Normal';font-variant-ligatures:normal;font-variant-caps:normal;font-variant-numeric:normal;font-variant-east-asian:normal;letter-spacing:2.05581px;fill:#000000;fill-opacity:1;stroke:none;stroke-width:0.664369;stroke-miterlimit:4;stroke-dasharray:none"
         id="path878" />
      <path
         d="m 94.103451,128.31475 c 0.07036,0.0775 0.120914,0.15969 0.149238,0.24399 0.02604,0.0719 0.03714,0.15349 0.02351,0.23961 -0.01121,0.0886 -0.05694,0.17674 -0.147061,0.26417 -0.09012,0.0874 -0.182074,0.13291 -0.271,0.14143 -0.0865,0.011 -0.165188,-0.005 -0.236293,-0.0332 -0.0834,-0.0309 -0.163993,-0.0839 -0.239358,-0.15656 l -1.051637,-1.08395 c -0.06793,-0.075 -0.118486,-0.15719 -0.14681,-0.24148 -0.02604,-0.0719 -0.04207,-0.15357 -0.02844,-0.23969 0.01364,-0.0861 0.05944,-0.17917 0.149564,-0.2666 0.09012,-0.0874 0.181999,-0.12798 0.268497,-0.139 0.0865,-0.011 0.17012,0.005 0.241225,0.0332 0.0834,0.0309 0.163993,0.0839 0.236929,0.15405 z M 92.78145,127.4931 c -0.04857,-0.0501 -0.09259,-0.0754 -0.146768,-0.0812 -0.02466,-3.8e-4 -0.05197,0.0115 -0.0745,0.0334 -0.04756,0.0462 -0.03609,0.10305 -0.01453,0.14531 0.01192,0.0273 0.03127,0.0523 0.05556,0.0773 l 1.051638,1.08395 c 0.051,0.0526 0.09752,0.0755 0.14927,0.0787 0.02466,3.8e-4 0.04947,-0.009 0.072,-0.031 0.04756,-0.0461 0.04095,-0.0981 0.01453,-0.14531 -0.0095,-0.0248 -0.02885,-0.0498 -0.05556,-0.0773 z"
         style="font-style:normal;font-variant:normal;font-weight:normal;font-stretch:normal;font-size:3.48791px;line-height:1.25;font-family:'League Gothic';-inkscape-font-specification:'League Gothic, Normal';font-variant-ligatures:normal;font-variant-caps:normal;font-variant-numeric:normal;font-variant-east-asian:normal;letter-spacing:2.05581px;fill:#000000;fill-opacity:1;stroke:none;stroke-width:0.664369;stroke-miterlimit:4;stroke-dasharray:none"
         id="path880" />
      <path
         d="m 95.916268,125.55346 -0.210877,-0.33297 c -0.03732,-0.0589 -0.07524,-0.0927 -0.127097,-0.10943 -0.02406,-0.005 -0.05324,6.9e-4 -0.07976,0.0175 -0.05599,0.0355 -0.05638,0.0935 -0.04391,0.13927 0.0061,0.0292 0.01994,0.0576 0.0386,0.087 l 0.824845,1.30243 c 0.03919,0.0619 0.08005,0.0938 0.130042,0.10756 0.0241,0.005 0.0503,0.001 0.0768,-0.0156 0.056,-0.0354 0.0601,-0.0876 0.0439,-0.13928 -0.004,-0.0262 -0.0181,-0.0546 -0.0386,-0.087 l -0.248198,-0.39191 -0.126707,0.0802 -0.169821,-0.26815 0.444946,-0.28179 0.68302,1.07848 -0.18859,0.11944 -0.10362,-0.0789 c -0.0123,0.11099 -0.0641,0.21815 -0.16728,0.28347 -0.10313,0.0653 -0.19065,0.0836 -0.27355,0.07 -0.08103,-0.0106 -0.151847,-0.0442 -0.212743,-0.0882 -0.06944,-0.051 -0.131615,-0.12307 -0.184653,-0.21334 l -0.80805,-1.27592 c -0.05117,-0.0873 -0.08388,-0.17807 -0.09439,-0.26637 -0.0108,-0.0757 -0.0098,-0.15893 0.02112,-0.24045 0.03094,-0.0815 0.09479,-0.16324 0.200868,-0.23043 0.10608,-0.0672 0.204301,-0.0881 0.291228,-0.0812 0.08693,0.007 0.165503,0.0397 0.229347,0.0818 0.07533,0.0473 0.143402,0.11561 0.200467,0.1992 l 0.210877,0.33297 z"
         style="font-style:normal;font-variant:normal;font-weight:normal;font-stretch:normal;font-size:3.48791px;line-height:1.25;font-family:'League Gothic';-inkscape-font-specification:'League Gothic, Normal';font-variant-ligatures:normal;font-variant-caps:normal;font-variant-numeric:normal;font-variant-east-asian:normal;letter-spacing:2.05581px;fill:#000000;fill-opacity:1;stroke:none;stroke-width:0.664369;stroke-miterlimit:4;stroke-dasharray:none"
         id="path882" />
      <path
         d="m 99.931921,124.86364 c 0.0336,0.0992 0.0472,0.19466 0.0396,0.28326 -0.005,0.0763 -0.0271,0.15557 -0.074,0.22912 -0.0456,0.0768 -0.12268,0.13937 -0.24019,0.18363 -0.11751,0.0443 -0.21997,0.0493 -0.30492,0.0217 -0.0837,-0.0244 -0.14951,-0.0704 -0.20347,-0.12464 -0.0642,-0.0615 -0.11695,-0.14231 -0.15709,-0.239 l -0.53225,-1.41337 c -0.0324,-0.0959 -0.046,-0.1914 -0.0383,-0.28 0.005,-0.0763 0.0226,-0.1576 0.0695,-0.23115 0.0468,-0.0735 0.12595,-0.14061 0.24346,-0.18486 0.11751,-0.0442 0.21793,-0.0448 0.30165,-0.0204 0.0837,0.0244 0.15401,0.0725 0.20797,0.12667 0.0642,0.0616 0.11695,0.14231 0.15586,0.23574 z m -0.88478,-1.28061 c -0.0246,-0.0653 -0.0549,-0.10607 -0.10224,-0.13294 -0.0225,-0.0102 -0.0523,-0.0101 -0.0816,9.3e-4 -0.062,0.0233 -0.0742,0.0801 -0.0713,0.12746 5e-5,0.0298 0.008,0.0604 0.0201,0.093 l 0.53224,1.41337 c 0.0258,0.0686 0.0593,0.1081 0.10551,0.13171 0.0225,0.0102 0.049,0.0114 0.0784,3e-4 0.062,-0.0234 0.0767,-0.0736 0.0713,-0.12746 10e-4,-0.0265 -0.007,-0.0572 -0.0201,-0.0931 z"
         style="font-style:normal;font-variant:normal;font-weight:normal;font-stretch:normal;font-size:3.48791px;line-height:1.25;font-family:'League Gothic';-inkscape-font-specification:'League Gothic, Normal';font-variant-ligatures:normal;font-variant-caps:normal;font-variant-numeric:normal;font-variant-east-asian:normal;letter-spacing:2.05581px;fill:#000000;fill-opacity:1;stroke:none;stroke-width:0.664369;stroke-miterlimit:4;stroke-dasharray:none"
         id="path884" />
      <path
         d="m 104.92758,124.48935 0.0106,-2.5636 0.29647,0.001 c 0.34879,0.001 0.53685,0.072 0.63718,0.26773 0.0969,0.19573 0.10947,0.51667 0.10739,1.01893 -0.002,0.50225 -0.0174,0.81959 -0.11583,1.01451 -0.10196,0.1949 -0.29059,0.26387 -0.63938,0.26243 z m 0.37826,-0.37513 c 0.12905,5.3e-4 0.20235,-0.0131 0.24124,-0.13852 0.0177,-0.0592 0.032,-0.14985 0.036,-0.27191 0.004,-0.12206 0.005,-0.28599 0.006,-0.49526 8.7e-4,-0.20928 0.002,-0.37321 -10e-4,-0.4953 -0.003,-0.1186 -0.0166,-0.20934 -0.0337,-0.2722 -0.0379,-0.12223 -0.11105,-0.13649 -0.2401,-0.13702 z"
         style="font-style:normal;font-variant:normal;font-weight:normal;font-stretch:normal;font-size:3.48791px;line-height:1.25;font-family:'League Gothic';-inkscape-font-specification:'League Gothic, Normal';font-variant-ligatures:normal;font-variant-caps:normal;font-variant-numeric:normal;font-variant-east-asian:normal;letter-spacing:2.05581px;fill:#000000;fill-opacity:1;stroke:none;stroke-width:0.664369;stroke-miterlimit:4;stroke-dasharray:none"
         id="path886" />
      <path
         d="m 108.78877,122.23867 0.84341,0.17566 -0.0789,0.37902 -0.47463,-0.0989 -0.13726,0.65903 0.34147,0.0711 -0.0839,0.40293 -0.34147,-0.0711 -0.14365,0.68976 0.47463,0.0988 -0.0789,0.37903 -0.84341,-0.17566 z"
         style="font-style:normal;font-variant:normal;font-weight:normal;font-stretch:normal;font-size:3.48791px;line-height:1.25;font-family:'League Gothic';-inkscape-font-specification:'League Gothic, Normal';font-variant-ligatures:normal;font-variant-caps:normal;font-variant-numeric:normal;font-variant-east-asian:normal;letter-spacing:2.05581px;fill:#000000;fill-opacity:1;stroke:none;stroke-width:0.664369;stroke-miterlimit:4;stroke-dasharray:none"
         id="path888" />
      <path
         d="m 112.58109,124.1243 c 0.0329,-0.077 0.0667,-0.16494 0.0731,-0.24188 0.005,-0.0737 -0.0111,-0.13372 -0.0656,-0.15704 -0.0912,-0.0352 -0.1598,0.0455 -0.21876,0.18338 -0.0343,0.0802 -0.0347,0.17865 -0.0217,0.29039 0.0129,0.11173 0.0405,0.23353 0.0653,0.36175 0.0294,0.15294 0.0575,0.30909 0.0677,0.4538 0.0102,0.14472 -2.1e-4,0.28441 -0.0551,0.4127 -0.0672,0.15714 -0.15593,0.2937 -0.27631,0.3712 -0.12038,0.0775 -0.26921,0.0973 -0.45843,0.0164 -0.22129,-0.0946 -0.31071,-0.23148 -0.32642,-0.38993 -0.0157,-0.15845 0.0409,-0.33528 0.11635,-0.51167 l 0.35366,0.11328 c -0.0425,0.0994 -0.0818,0.20021 -0.0877,0.28495 -0.0105,0.0866 0.006,0.15433 0.0798,0.18587 0.10263,0.0439 0.18773,-0.0487 0.25218,-0.19944 0.0329,-0.077 0.0328,-0.18322 0.0213,-0.29817 -0.01,-0.0572 -0.018,-0.11768 -0.0295,-0.1795 -0.0262,-0.12501 -0.0533,-0.26559 -0.0796,-0.41716 -0.0262,-0.15157 -0.0318,-0.29812 -0.0136,-0.43828 0.007,-0.0692 0.0246,-0.13741 0.052,-0.20156 0.0548,-0.12828 0.14267,-0.25384 0.26169,-0.32814 0.11764,-0.0711 0.26142,-0.0969 0.42635,-0.0301 0.20983,0.0859 0.29468,0.22462 0.30855,0.37849 0.0125,0.15708 -0.0354,0.32246 -0.0917,0.45395 z"
         style="font-style:normal;font-variant:normal;font-weight:normal;font-stretch:normal;font-size:3.48791px;line-height:1.25;font-family:'League Gothic';-inkscape-font-specification:'League Gothic, Normal';font-variant-ligatures:normal;font-variant-caps:normal;font-variant-numeric:normal;font-variant-east-asian:normal;letter-spacing:2.05581px;fill:#000000;fill-opacity:1;stroke:none;stroke-width:0.664369;stroke-miterlimit:4;stroke-dasharray:none"
         id="path890" />
      <path
         d="m 115.57371,124.96325 0.31362,0.20867 -1.42013,2.13433 -0.31361,-0.20867 z"
         style="font-style:normal;font-variant:normal;font-weight:normal;font-stretch:normal;font-size:3.48791px;line-height:1.25;font-family:'League Gothic';-inkscape-font-specification:'League Gothic, Normal';font-variant-ligatures:normal;font-variant-caps:normal;font-variant-numeric:normal;font-variant-east-asian:normal;letter-spacing:2.05581px;fill:#000000;fill-opacity:1;stroke:none;stroke-width:0.664369;stroke-miterlimit:4;stroke-dasharray:none"
         id="path892" />
      <path
         d="m 117.87867,127.99567 0.27513,-0.2822 c 0.0487,-0.05 0.0728,-0.0947 0.077,-0.14897 -3.1e-4,-0.0247 -0.013,-0.0516 -0.0355,-0.0735 -0.0474,-0.0463 -0.10402,-0.0332 -0.14566,-0.0105 -0.027,0.0127 -0.0514,0.0327 -0.0757,0.0577 l -1.0762,1.10385 c -0.0511,0.0524 -0.0727,0.0996 -0.0745,0.15141 3.1e-4,0.0247 0.0105,0.0492 0.033,0.0711 0.0475,0.0463 0.0991,0.0382 0.14565,0.0105 0.0245,-0.0102 0.049,-0.0302 0.0757,-0.0577 l 0.32384,-0.33215 -0.10739,-0.1047 0.22157,-0.22727 0.37711,0.36767 -0.89115,0.91405 -0.15984,-0.15583 0.0528,-0.11906 c -0.11082,0.0137 -0.22708,-0.0119 -0.31449,-0.0971 -0.0874,-0.0852 -0.12543,-0.16614 -0.13142,-0.24992 -0.008,-0.0813 0.008,-0.15796 0.0366,-0.22739 0.0335,-0.0793 0.0893,-0.15652 0.16481,-0.22901 l 1.05429,-1.08137 c 0.0731,-0.07 0.15383,-0.12282 0.23731,-0.15347 0.0712,-0.028 0.15233,-0.0463 0.2388,-0.0351 0.0865,0.0112 0.18075,0.0544 0.27066,0.14209 0.0899,0.0877 0.13299,0.17837 0.14641,0.26453 0.0134,0.0862 -3.1e-4,0.1702 -0.0265,0.24206 -0.0285,0.0842 -0.0793,0.16626 -0.1474,0.24112 l -0.27513,0.28221 z"
         style="font-style:normal;font-variant:normal;font-weight:normal;font-stretch:normal;font-size:3.48791px;line-height:1.25;font-family:'League Gothic';-inkscape-font-specification:'League Gothic, Normal';font-variant-ligatures:normal;font-variant-caps:normal;font-variant-numeric:normal;font-variant-east-asian:normal;letter-spacing:2.05581px;fill:#000000;fill-opacity:1;stroke:none;stroke-width:0.664369;stroke-miterlimit:4;stroke-dasharray:none"
         id="path894" />
      <path
         d="m 119.82751,130.81435 0.0813,-0.0919 -0.0116,-0.0174 -1.21027,0.80667 -0.19151,-0.28733 2.1332,-1.42183 0.1857,0.27862 -0.90846,1.04564 -0.0813,0.0919 0.0116,0.0174 1.21026,-0.80667 0.19151,0.28732 -2.13319,1.42183 -0.18571,-0.27862 z"
         style="font-style:normal;font-variant:normal;font-weight:normal;font-stretch:normal;font-size:3.48791px;line-height:1.25;font-family:'League Gothic';-inkscape-font-specification:'League Gothic, Normal';font-variant-ligatures:normal;font-variant-caps:normal;font-variant-numeric:normal;font-variant-east-asian:normal;letter-spacing:2.05581px;fill:#000000;fill-opacity:1;stroke:none;stroke-width:0.664369;stroke-miterlimit:4;stroke-dasharray:none"
         id="path896" />
      <path
         d="m 90.513081,151.34722 -0.169229,-0.23917 1.89327,-1.76263 0.201464,0.28472 -1.001015,0.89202 -0.06431,0.054 0.01612,0.0228 0.07438,-0.0398 1.180318,-0.63861 0.157142,0.22208 -0.994973,0.90057 -0.06229,0.0569 0.01612,0.0228 0.07236,-0.0427 1.174274,-0.64716 0.201464,0.28472 -2.292169,1.19888 -0.169229,-0.23916 0.890107,-0.84346 0.110343,-0.10371 -0.0081,-0.0114 -0.134519,0.0696 z"
         style="font-style:normal;font-variant:normal;font-weight:normal;font-stretch:normal;font-size:3.48791px;line-height:1.25;font-family:'League Gothic';-inkscape-font-specification:'League Gothic, Normal';font-variant-ligatures:normal;font-variant-caps:normal;font-variant-numeric:normal;font-variant-east-asian:normal;letter-spacing:1.82827px;fill:#000000;fill-opacity:1;stroke:none;stroke-width:0.664369;stroke-miterlimit:4;stroke-dasharray:none"
         id="path904" />
      <path
         d="m 94.274409,151.92051 0.263087,0.2696 -1.834773,1.79045 -0.263087,-0.2696 z"
         style="font-style:normal;font-variant:normal;font-weight:normal;font-stretch:normal;font-size:3.48791px;line-height:1.25;font-family:'League Gothic';-inkscape-font-specification:'League Gothic, Normal';font-variant-ligatures:normal;font-variant-caps:normal;font-variant-numeric:normal;font-variant-east-asian:normal;letter-spacing:1.82827px;fill:#000000;fill-opacity:1;stroke:none;stroke-width:0.664369;stroke-miterlimit:4;stroke-dasharray:none"
         id="path906" />
      <path
         d="m 95.485096,153.58165 0.235263,-0.30747 0.864262,0.66128 -0.235264,0.30747 -0.282547,-0.21618 -1.322562,1.72852 -0.299167,-0.22891 1.32256,-1.72852 z"
         style="font-style:normal;font-variant:normal;font-weight:normal;font-stretch:normal;font-size:3.48791px;line-height:1.25;font-family:'League Gothic';-inkscape-font-specification:'League Gothic, Normal';font-variant-ligatures:normal;font-variant-caps:normal;font-variant-numeric:normal;font-variant-east-asian:normal;letter-spacing:1.82827px;fill:#000000;fill-opacity:1;stroke:none;stroke-width:0.664369;stroke-miterlimit:4;stroke-dasharray:none"
         id="path908" />
      <path
         d="m 97.804391,156.36515 -0.2588,-0.13733 -0.52318,0.98592 -0.33275,-0.17657 1.20167,-2.26454 0.33275,0.17658 -0.49702,0.93662 0.25881,0.13733 0.49702,-0.93662 0.33274,0.17657 -1.20167,2.26453 -0.33275,-0.17657 z"
         style="font-style:normal;font-variant:normal;font-weight:normal;font-stretch:normal;font-size:3.48791px;line-height:1.25;font-family:'League Gothic';-inkscape-font-specification:'League Gothic, Normal';font-variant-ligatures:normal;font-variant-caps:normal;font-variant-numeric:normal;font-variant-east-asian:normal;letter-spacing:1.82827px;fill:#000000;fill-opacity:1;stroke:none;stroke-width:0.664369;stroke-miterlimit:4;stroke-dasharray:none"
         id="path910" />
      <path
         d="m 102.34307,156.48185 0.36904,0.0755 -0.51413,2.51153 -0.36904,-0.0755 z"
         style="font-style:normal;font-variant:normal;font-weight:normal;font-stretch:normal;font-size:3.48791px;line-height:1.25;font-family:'League Gothic';-inkscape-font-specification:'League Gothic, Normal';font-variant-ligatures:normal;font-variant-caps:normal;font-variant-numeric:normal;font-variant-east-asian:normal;letter-spacing:1.82827px;fill:#000000;fill-opacity:1;stroke:none;stroke-width:0.664369;stroke-miterlimit:4;stroke-dasharray:none"
         id="path912" />
      <path
         d="m 104.74002,158.03751 -0.0263,-0.11982 -0.0209,-9e-4 -0.0625,1.45311 -0.34498,-0.0148 0.11021,-2.56125 0.33453,0.0144 0.30846,1.35038 0.0263,0.11982 0.0209,9e-4 0.0625,-1.45311 0.34498,0.0148 -0.11021,2.56125 -0.33453,-0.0144 z"
         style="font-style:normal;font-variant:normal;font-weight:normal;font-stretch:normal;font-size:3.48791px;line-height:1.25;font-family:'League Gothic';-inkscape-font-specification:'League Gothic, Normal';font-variant-ligatures:normal;font-variant-caps:normal;font-variant-numeric:normal;font-variant-east-asian:normal;letter-spacing:1.82827px;fill:#000000;fill-opacity:1;stroke:none;stroke-width:0.664369;stroke-miterlimit:4;stroke-dasharray:none"
         id="path914" />
      <path
         d="m 107.5149,156.71109 0.12109,0.88817 0.0138,-0.002 0.0116,-0.0438 0.1956,-0.88911 0.36287,-0.0495 -0.22812,0.88298 0.61935,1.65101 -0.36287,0.0495 -0.40997,-1.07057 -0.0174,-0.0504 -0.0104,0.001 -0.0137,0.0547 -0.0581,0.21914 0.1225,0.89854 -0.37324,0.0509 -0.3463,-2.54012 z"
         style="font-style:normal;font-variant:normal;font-weight:normal;font-stretch:normal;font-size:3.48791px;line-height:1.25;font-family:'League Gothic';-inkscape-font-specification:'League Gothic, Normal';font-variant-ligatures:normal;font-variant-caps:normal;font-variant-numeric:normal;font-variant-east-asian:normal;letter-spacing:1.82827px;fill:#000000;fill-opacity:1;stroke:none;stroke-width:0.664369;stroke-miterlimit:4;stroke-dasharray:none"
         id="path916" />
      <path
         d="m 110.58553,156.71611 c -0.0255,-0.0797 -0.0574,-0.1684 -0.10298,-0.23074 -0.0445,-0.059 -0.0959,-0.0939 -0.15236,-0.0758 -0.092,0.033 -0.0911,0.13894 -0.0455,0.28181 0.0265,0.0831 0.0907,0.15778 0.17353,0.23384 0.0829,0.0761 0.18341,0.15013 0.28608,0.23085 0.12232,0.0964 0.24571,0.19614 0.3481,0.29892 0.10239,0.10278 0.1859,0.21524 0.22834,0.34815 0.052,0.16281 0.0742,0.32413 0.0339,0.46151 -0.0403,0.13737 -0.13994,0.24972 -0.33597,0.31233 -0.22926,0.0732 -0.38643,0.0282 -0.50197,-0.0814 -0.11554,-0.10956 -0.18838,-0.28036 -0.24674,-0.4631 l 0.34159,-0.1457 c 0.0329,0.103 0.0691,0.20494 0.12009,0.27288 0.0487,0.0723 0.10557,0.11274 0.18199,0.0883 0.10632,-0.034 0.11012,-0.15966 0.0603,-0.31582 -0.0255,-0.0797 -0.0951,-0.16004 -0.17898,-0.23942 -0.0448,-0.037 -0.0906,-0.0773 -0.13972,-0.11649 -0.1016,-0.0774 -0.2141,-0.16596 -0.3331,-0.26343 -0.119,-0.0975 -0.21913,-0.20463 -0.29706,-0.32254 -0.0401,-0.0568 -0.0713,-0.12003 -0.0925,-0.18649 -0.0424,-0.1329 -0.0582,-0.28532 -0.0168,-0.41937 0.0425,-0.13073 0.13436,-0.24429 0.30275,-0.30172 0.21491,-0.0723 0.36981,-0.0229 0.48097,0.0844 0.11222,0.11062 0.18414,0.26706 0.22765,0.40329 z"
         style="font-style:normal;font-variant:normal;font-weight:normal;font-stretch:normal;font-size:3.48791px;line-height:1.25;font-family:'League Gothic';-inkscape-font-specification:'League Gothic, Normal';font-variant-ligatures:normal;font-variant-caps:normal;font-variant-numeric:normal;font-variant-east-asian:normal;letter-spacing:1.82827px;fill:#000000;fill-opacity:1;stroke:none;stroke-width:0.664369;stroke-miterlimit:4;stroke-dasharray:none"
         id="path918" />
      <path
         d="m 113.84777,156.3753 0.16192,0.31286 c 0.045,0.0945 0.0697,0.18779 0.0725,0.27667 0.004,0.0764 -0.009,0.15768 -0.0466,0.23621 -0.0363,0.0816 -0.1055,0.15279 -0.21702,0.21051 -0.11151,0.0577 -0.21268,0.0747 -0.30028,0.0572 -0.086,-0.0144 -0.15673,-0.0524 -0.21667,-0.0999 -0.0709,-0.0536 -0.13282,-0.12763 -0.18401,-0.21896 l -0.69419,-1.34127 c -0.0434,-0.0914 -0.0681,-0.18469 -0.0709,-0.27357 -0.004,-0.0764 0.004,-0.15917 0.0419,-0.2377 0.0379,-0.0785 0.10861,-0.1544 0.22012,-0.21211 0.11152,-0.0577 0.21118,-0.07 0.29719,-0.0556 0.086,0.0144 0.16143,0.0539 0.22137,0.10144 0.0709,0.0536 0.13282,0.12762 0.18241,0.21585 l 0.16192,0.31286 -0.31286,0.16192 -0.16192,-0.31286 c -0.0321,-0.0619 -0.07,-0.0973 -0.12331,-0.11684 -0.0235,-0.007 -0.0562,-0.002 -0.0903,0.0153 -0.0588,0.0305 -0.0643,0.0883 -0.0589,0.13654 0.004,0.0296 0.0149,0.0591 0.0278,0.0917 l 0.69418,1.34127 c 0.0368,0.0634 0.0778,0.0972 0.12641,0.11523 0.0235,0.007 0.05,0.006 0.0779,-0.009 0.0712,-0.0369 0.0799,-0.0885 0.0713,-0.14296 -0.002,-0.0265 -0.0133,-0.056 -0.0309,-0.09 l -0.16192,-0.31286 z"
         style="font-style:normal;font-variant:normal;font-weight:normal;font-stretch:normal;font-size:3.48791px;line-height:1.25;font-family:'League Gothic';-inkscape-font-specification:'League Gothic, Normal';font-variant-ligatures:normal;font-variant-caps:normal;font-variant-numeric:normal;font-variant-east-asian:normal;letter-spacing:1.82827px;fill:#000000;fill-opacity:1;stroke:none;stroke-width:0.664369;stroke-miterlimit:4;stroke-dasharray:none"
         id="path920" />
      <path
         d="m 115.90786,156.12415 -1.22835,-2.28323 0.36833,-0.27623 1.84783,1.81867 -0.293,0.21973 -0.3697,-0.37671 -0.2902,0.21763 0.25808,0.46041 z m -0.5273,-1.76699 -0.0481,-0.0467 -0.0168,0.0126 0.0314,0.0593 0.39899,0.71224 0.20649,-0.15485 z"
         style="font-style:normal;font-variant:normal;font-weight:normal;font-stretch:normal;font-size:3.48791px;line-height:1.25;font-family:'League Gothic';-inkscape-font-specification:'League Gothic, Normal';font-variant-ligatures:normal;font-variant-caps:normal;font-variant-numeric:normal;font-variant-east-asian:normal;letter-spacing:1.82827px;fill:#000000;fill-opacity:1;stroke:none;stroke-width:0.664369;stroke-miterlimit:4;stroke-dasharray:none"
         id="path922" />
      <path
         d="m 116.53353,152.27355 0.26036,-0.27223 c 0.1133,-0.11848 0.25686,-0.20802 0.42935,-0.2168 0.17249,-0.009 0.3715,0.0657 0.58324,0.26823 0.21174,0.2025 0.29252,0.39559 0.29144,0.5683 -0.001,0.17271 -0.0791,0.32493 -0.19241,0.4434 l 0.74109,0.70876 -0.26036,0.27223 z m 1.09471,0.52572 c 0.0795,-0.0832 0.11505,-0.15058 0.10113,-0.22181 -0.0114,-0.0688 -0.0722,-0.14147 -0.17558,-0.24031 -0.10335,-0.0988 -0.18368,-0.16119 -0.25798,-0.17434 -0.0743,-0.0131 -0.14509,0.0205 -0.22465,0.10369 z"
         style="font-style:normal;font-variant:normal;font-weight:normal;font-stretch:normal;font-size:3.48791px;line-height:1.25;font-family:'League Gothic';-inkscape-font-specification:'League Gothic, Normal';font-variant-ligatures:normal;font-variant-caps:normal;font-variant-numeric:normal;font-variant-east-asian:normal;letter-spacing:1.82827px;fill:#000000;fill-opacity:1;stroke:none;stroke-width:0.664369;stroke-miterlimit:4;stroke-dasharray:none"
         id="path924" />
      <path
         d="m 118.26354,150.26192 0.49127,-0.70771 0.31804,0.22077 -0.27646,0.39827 0.55299,0.38386 0.19889,-0.28652 0.3381,0.2347 -0.1989,0.28652 0.57878,0.40177 0.27647,-0.39827 0.31804,0.22077 -0.49127,0.70772 z"
         style="font-style:normal;font-variant:normal;font-weight:normal;font-stretch:normal;font-size:3.48791px;line-height:1.25;font-family:'League Gothic';-inkscape-font-specification:'League Gothic, Normal';font-variant-ligatures:normal;font-variant-caps:normal;font-variant-numeric:normal;font-variant-east-asian:normal;letter-spacing:1.82827px;fill:#000000;fill-opacity:1;stroke:none;stroke-width:0.664369;stroke-miterlimit:4;stroke-dasharray:none"
         id="path926" />
    </g>
  </g>
</svg>
